<svg width="25" height="5" viewBox="0 0 25 5" fill="none" xmlns="http://www.w3.org/2000/svg">
<path d="M22.5 5C21.837 5 21.2011 4.73661 20.7322 4.26777C20.2634 3.79893 20 3.16304 20 2.5C20 1.83696 20.2634 1.20107 20.7322 0.732233C21.2011 0.263392 21.837 0 22.5 0C23.163 0 23.7989 0.263392 24.2678 0.732233C24.7366 1.20107 25 1.83696 25 2.5C25 3.16304 24.7366 3.79893 24.2678 4.26777C23.7989 4.73661 23.163 5 22.5 5ZM12.5 5C11.837 5 11.2011 4.73661 10.7322 4.26777C10.2634 3.79893 10 3.16304 10 2.5C10 1.83696 10.2634 1.20107 10.7322 0.732233C11.2011 0.263392 11.837 0 12.5 0C13.163 0 13.7989 0.263392 14.2678 0.732233C14.7366 1.20107 15 1.83696 15 2.5C15 3.16304 14.7366 3.79893 14.2678 4.26777C13.7989 4.73661 13.163 5 12.5 5ZM2.5 5C1.83696 5 1.20107 4.73661 0.732233 4.26777C0.263392 3.79893 0 3.16304 0 2.5C0 1.83696 0.263392 1.20107 0.732233 0.732233C1.20107 0.263392 1.83696 0 2.5 0C3.16304 0 3.79893 0.263392 4.26777 0.732233C4.73661 1.20107 5 1.83696 5 2.5C5 3.16304 4.73661 3.79893 4.26777 4.26777C3.79893 4.73661 3.16304 5 2.5 5Z" fill="white"/>
</svg>
